<?xml version="1.0" encoding="utf-8"?>
<!-- Generator: Adobe Illustrator 23.0.1, SVG Export Plug-In . SVG Version: 6.00 Build 0)  -->
<svg version="1.1" id="Layer_1" xmlns="http://www.w3.org/2000/svg" xmlns:xlink="http://www.w3.org/1999/xlink" x="0px" y="0px"
	 viewBox="0 0 351.1 105.6" style="enable-background:new 0 0 351.1 105.6;" xml:space="preserve" width='32px' height='32px'>
<style type="text/css">
	.st0{fill:#A9ABAE;}
</style>
<path class="st0" d="M247.6,24.6l-144-0.1C100.2,13.7,91.4,1.5,68.8,0.2C25.3-2.5,0,26.2,0,26.2c43.7-5.2,61.8-1.9,61.8,13.7l0,25.5
	c0,16.3-18.1,18.9-61.8,13.6c0,0,25.2,28.7,68.7,26.1c22.6-1.3,31.4-13.4,34.8-24.3l144,0.1c3.4,10.8,12.2,22.9,34.8,24.3
	c43.5,2.6,68.7-26,68.7-26c-43.7,5.2-61.8,1.9-61.8-13.7l0-25.5c0-16.3,18.1-18.9,61.8-13.6c0,0-25.2-28.7-68.7-26.1
	C259.8,1.7,250.9,13.8,247.6,24.6z"/>
</svg>
